<svg id="Capa_1" data-name="Capa 1" xmlns="http://www.w3.org/2000/svg" viewBox="0 0 77.54 78.59"><defs><style>.cls-1{fill:#d50780;}.cls-2,.cls-3{font-size:10.73px;fill:#fcea21;font-family:MongolianBaiti, Mongolian Baiti;}.cls-3{stroke:#d50780;stroke-miterlimit:10;stroke-width:0.25px;}</style></defs><title>desliza_mas_circulo</title><path class="cls-1" d="M38.77,68.48A29.19,29.19,0,1,1,68,39.3,29.22,29.22,0,0,1,38.77,68.48Zm0-56.88A27.7,27.7,0,1,0,66.46,39.3,27.73,27.73,0,0,0,38.77,11.6Z"/><text class="cls-2" transform="matrix(0.82, -0.58, 0.58, 0.82, 19.8, 15.73)">•</text><text class="cls-3" transform="translate(22.73 13.67) rotate(-29.55)"> </text><text class="cls-3" transform="translate(24.71 12.29) rotate(-20.2)">D</text><text class="cls-3" transform="matrix(0.99, -0.16, 0.16, 0.99, 31.68, 9.84)">e</text><text class="cls-3" transform="matrix(1, -0.02, 0.02, 1, 36.15, 9.14)">s</text><text class="cls-3" transform="translate(40.14 9.1) rotate(5.35)">l</text><text class="cls-3" transform="translate(42.93 9.35) rotate(10.67)">i</text><text class="cls-3" transform="matrix(0.95, 0.3, -0.3, 0.95, 45.66, 9.79)">z</text><text class="cls-3" transform="translate(49.97 11.15) rotate(26.25)">a</text><text class="cls-3" transform="translate(54.03 13.19) rotate(33.18)">t</text><text class="cls-3" transform="translate(56.38 14.65) rotate(40.09)">e</text><text class="cls-3" transform="matrix(0.69, 0.73, -0.73, 0.69, 59.83, 17.62)"> </text><text class="cls-3" transform="matrix(0.59, 0.81, -0.81, 0.59, 61.6, 19.36)">h</text><text class="cls-3" transform="translate(64.6 23.47) rotate(62.97)">a</text><text class="cls-3" transform="translate(66.66 27.46) rotate(71.52)">c</text><text class="cls-3" transform="translate(68.07 31.8) rotate(78.52)">i</text><text class="cls-3" transform="translate(68.68 34.48) rotate(85.42)">a</text><text class="cls-3" transform="translate(68.99 39.03) rotate(92)"> </text><text class="cls-3" transform="matrix(-0.15, 0.99, -0.99, -0.15, 68.98, 41.52)">a</text><text class="cls-3" transform="translate(68.35 45.96) rotate(107.76)">b</text><text class="cls-3" transform="translate(66.8 50.8) rotate(116.86)">a</text><text class="cls-3" transform="translate(64.71 54.83) rotate(123.78)">j</text><text class="cls-3" transform="translate(63.25 57.18) rotate(131.24)">o</text><text class="cls-3" transform="translate(59.81 61) rotate(138.42)"> </text><text class="cls-2" transform="translate(57.96 62.69) rotate(144.15)">•</text><text class="cls-2" transform="matrix(-0.87, 0.5, -0.5, -0.87, 55.04, 64.77)"> </text><text class="cls-3" transform="translate(53.08 66.17) rotate(159.27)">D</text><text class="cls-3" transform="translate(46.09 68.69) rotate(170.59)">e</text><text class="cls-3" transform="translate(41.64 69.43) rotate(178.55)">s</text><text class="cls-3" transform="translate(37.67 69.51) rotate(-175.15)">l</text><text class="cls-3" transform="translate(34.87 69.28) rotate(-169.83)">i</text><text class="cls-3" transform="translate(32.13 68.86) rotate(-162.85)">z</text><text class="cls-3" transform="matrix(-0.9, -0.43, 0.43, -0.9, 27.83, 67.55)">a</text><text class="cls-3" transform="matrix(-0.84, -0.54, 0.54, -0.84, 23.75, 65.54)">t</text><text class="cls-3" transform="translate(21.38 64.1) rotate(-140.43)">e</text><text class="cls-3" transform="matrix(-0.69, -0.72, 0.72, -0.69, 17.91, 61.16)"> </text><text class="cls-3" transform="translate(16.12 59.44) rotate(-126.62)">h</text><text class="cls-3" transform="translate(13.09 55.36) rotate(-117.56)">a</text><text class="cls-3" transform="matrix(-0.32, -0.95, 0.95, -0.32, 10.98, 51.36)">c</text><text class="cls-3" transform="translate(9.55 47.07) rotate(-102.01)">i</text><text class="cls-3" transform="translate(8.91 44.37) rotate(-95.08)">a</text><text class="cls-3" transform="translate(8.55 39.83) rotate(-88.5)"> </text><text class="cls-3" transform="matrix(0.14, -0.99, 0.99, 0.14, 8.55, 37.33)">a</text><text class="cls-3" transform="translate(9.14 32.88) rotate(-72.72)">b</text><text class="cls-3" transform="matrix(0.44, -0.9, 0.9, 0.44, 10.65, 28.03)">a</text><text class="cls-3" transform="matrix(0.55, -0.84, 0.84, 0.55, 12.7, 23.98)">j</text><text class="cls-3" transform="translate(14.13 21.64) rotate(-49.27)">o</text><text class="cls-3" transform="matrix(0.74, -0.67, 0.67, 0.74, 17.54, 17.78)"> </text></svg>